<svg width="800" height="800" viewBox="-2.77 0 106 106" xmlns="http://www.w3.org/2000/svg"><path data-name="Path 34" d="M0 45.002a45 45 0 1 1 45 45 45 45 0 0 1-45-45" fill="#f9d015"/><g data-name="Group 17"><g data-name="Group 16"><g data-name="Group 15" transform="translate(-214.03 -204.142)"><circle data-name="Ellipse 1" cx="3.5" cy="3.5" r="3.5" transform="translate(276.53 239.642)" fill="#59d999"/><path data-name="Path 35" d="M308.82 230.912a19.31 19.31 0 0 1-.01 27.33 2.994 2.994 0 0 1-4.24 0 3 3 0 0 1 0-4.24 13.325 13.325 0 0 0 .01-18.851 3 3 0 1 1 4.24-4.239" fill="#293a56"/><path data-name="Path 36" d="M304.41 306.311a3 3 0 1 1-5.76 1.661l-3.41-11.83h-29.62l-3.19 11.79a3.02 3.02 0 0 1-2.9 2.21 3 3 0 0 1-.79-.1 3.02 3.02 0 0 1-2.11-3.689l15.66-57.72a9.5 9.5 0 1 1 15.5-.021Zm-10.9-16.169-4.75-16.491-16.489 16.491Zm-7.489-26-3.421-11.861a9.3 9.3 0 0 1-5.09.01l-3.21 11.851Zm-17.481 21.25 15.25-15.25h-11.12Zm14.99-42.25a3.5 3.5 0 1 0-3.5 3.5 3.5 3.5 0 0 0 3.5-3.5" fill="#293a56"/><path data-name="Path 37" d="M299.211 235.132a13.257 13.257 0 0 1-.02 18.78 3 3 0 0 1-2.121.879 3.03 3.03 0 0 1-2.12-.879 3 3 0 0 1 .011-4.25 7.256 7.256 0 0 0 .009-10.28 3 3 0 0 1 4.241-4.25" fill="#293a56"/><path data-name="Path 38" d="M264.961 235.162a3.013 3.013 0 0 1-.011 4.25 7.25 7.25 0 0 0-.009 10.279 3 3 0 0 1 0 4.241 3 3 0 0 1-4.241 0 13.253 13.253 0 0 1 .011-18.77 3.01 3.01 0 0 1 4.25 0" fill="#293a56"/><path data-name="Path 39" d="M255.49 230.932a3 3 0 0 1 0 4.24 13.324 13.324 0 0 0-.009 18.849 3 3 0 0 1 0 4.241 2.995 2.995 0 0 1-4.241 0 19.31 19.31 0 0 1 .011-27.33 3 3 0 0 1 4.239 0" fill="#293a56"/></g></g></g></svg>